<mxfile host="65bd71144e" modified="2020-11-18T01:53:09.152Z" agent="5.0 (Windows NT 10.0; Win64; x64) AppleWebKit/537.36 (KHTML, like Gecko) Code/1.51.1 Chrome/83.0.4103.122 Electron/9.3.3 Safari/537.36" etag="Ib-_EkFBy4pQjmbXQ3Tv" version="13.6.5">
    <diagram id="H-5pRMC4eVL883-Qc382" name="Page-1">
        <mxGraphModel dx="1058" dy="563" grid="1" gridSize="10" guides="1" tooltips="1" connect="1" arrows="1" fold="1" page="1" pageScale="1" pageWidth="827" pageHeight="1169" math="0" shadow="0">
            <root>
                <mxCell id="0"/>
                <mxCell id="1" parent="0"/>
                <mxCell id="68" value="" style="rounded=0;whiteSpace=wrap;html=1;" vertex="1" parent="1">
                    <mxGeometry x="120" y="40" width="600" height="360" as="geometry"/>
                </mxCell>
                <mxCell id="69" value="" style="rounded=0;whiteSpace=wrap;html=1;" vertex="1" parent="1">
                    <mxGeometry x="120" y="40" width="600" height="40" as="geometry"/>
                </mxCell>
                <mxCell id="71" value="10vh" style="text;html=1;strokeColor=none;fillColor=none;align=center;verticalAlign=middle;whiteSpace=wrap;rounded=0;" vertex="1" parent="1">
                    <mxGeometry x="80" y="50" width="40" height="20" as="geometry"/>
                </mxCell>
                <mxCell id="72" value="90vh" style="text;html=1;strokeColor=none;fillColor=none;align=center;verticalAlign=middle;whiteSpace=wrap;rounded=0;" vertex="1" parent="1">
                    <mxGeometry x="30" y="230" width="40" height="20" as="geometry"/>
                </mxCell>
                <mxCell id="73" value="로고이미지" style="rounded=0;whiteSpace=wrap;html=1;" vertex="1" parent="1">
                    <mxGeometry x="120" y="40" width="80" height="40" as="geometry"/>
                </mxCell>
                <mxCell id="74" value="타이틀" style="rounded=0;whiteSpace=wrap;html=1;" vertex="1" parent="1">
                    <mxGeometry x="340" y="40" width="160" height="40" as="geometry"/>
                </mxCell>
                <mxCell id="75" value="종료&lt;br&gt;버튼" style="rounded=0;whiteSpace=wrap;html=1;" vertex="1" parent="1">
                    <mxGeometry x="680" y="40" width="40" height="40" as="geometry"/>
                </mxCell>
                <mxCell id="76" value="" style="rounded=0;whiteSpace=wrap;html=1;" vertex="1" parent="1">
                    <mxGeometry x="120" y="90" width="600" height="40" as="geometry"/>
                </mxCell>
                <mxCell id="82" value="" style="rounded=0;whiteSpace=wrap;html=1;" vertex="1" parent="1">
                    <mxGeometry x="120" y="200" width="600" height="60" as="geometry"/>
                </mxCell>
                <mxCell id="83" value="" style="strokeWidth=2;html=1;shape=mxgraph.flowchart.annotation_2;align=left;labelPosition=right;pointerEvents=1;" vertex="1" parent="1">
                    <mxGeometry x="70" y="80" width="50" height="320" as="geometry"/>
                </mxCell>
                <mxCell id="84" value="" style="rounded=0;whiteSpace=wrap;html=1;" vertex="1" parent="1">
                    <mxGeometry x="120" y="260" width="600" height="60" as="geometry"/>
                </mxCell>
                <mxCell id="85" value="" style="rounded=0;whiteSpace=wrap;html=1;" vertex="1" parent="1">
                    <mxGeometry x="120" y="320" width="600" height="60" as="geometry"/>
                </mxCell>
                <mxCell id="90" value="O2" style="rounded=0;whiteSpace=wrap;html=1;fontSize=18;" vertex="1" parent="1">
                    <mxGeometry x="220" y="90" width="100" height="40" as="geometry"/>
                </mxCell>
                <mxCell id="92" value="CO2" style="rounded=0;whiteSpace=wrap;html=1;fontSize=18;" vertex="1" parent="1">
                    <mxGeometry x="320" y="90" width="100" height="40" as="geometry"/>
                </mxCell>
                <mxCell id="93" value="CO" style="rounded=0;whiteSpace=wrap;html=1;fontSize=18;" vertex="1" parent="1">
                    <mxGeometry x="420" y="90" width="100" height="40" as="geometry"/>
                </mxCell>
                <mxCell id="94" value="H2S" style="rounded=0;whiteSpace=wrap;html=1;fontSize=18;" vertex="1" parent="1">
                    <mxGeometry x="520" y="90" width="100" height="40" as="geometry"/>
                </mxCell>
                <mxCell id="95" value="LEL" style="rounded=0;whiteSpace=wrap;html=1;fontSize=18;" vertex="1" parent="1">
                    <mxGeometry x="620" y="90" width="100" height="40" as="geometry"/>
                </mxCell>
                <mxCell id="113" value="3.5vh" style="text;html=1;strokeColor=none;fillColor=none;align=center;verticalAlign=middle;whiteSpace=wrap;rounded=0;" vertex="1" parent="1">
                    <mxGeometry x="723" y="76" width="40" height="20" as="geometry"/>
                </mxCell>
                <mxCell id="114" value="3.5vh" style="text;html=1;strokeColor=none;fillColor=none;align=center;verticalAlign=middle;whiteSpace=wrap;rounded=0;" vertex="1" parent="1">
                    <mxGeometry x="723" y="123" width="40" height="20" as="geometry"/>
                </mxCell>
                <mxCell id="115" value="14vh" style="text;html=1;strokeColor=none;fillColor=none;align=center;verticalAlign=middle;whiteSpace=wrap;rounded=0;" vertex="1" parent="1">
                    <mxGeometry x="723" y="100" width="40" height="20" as="geometry"/>
                </mxCell>
                <mxCell id="116" value="28vh" style="text;html=1;strokeColor=none;fillColor=none;align=center;verticalAlign=middle;whiteSpace=wrap;rounded=0;" vertex="1" parent="1">
                    <mxGeometry x="723" y="170" width="40" height="20" as="geometry"/>
                </mxCell>
                <mxCell id="118" value="28vh" style="text;html=1;strokeColor=none;fillColor=none;align=center;verticalAlign=middle;whiteSpace=wrap;rounded=0;" vertex="1" parent="1">
                    <mxGeometry x="723" y="250" width="40" height="20" as="geometry"/>
                </mxCell>
                <mxCell id="119" value="28vh" style="text;html=1;strokeColor=none;fillColor=none;align=center;verticalAlign=middle;whiteSpace=wrap;rounded=0;" vertex="1" parent="1">
                    <mxGeometry x="723" y="330" width="40" height="20" as="geometry"/>
                </mxCell>
                <mxCell id="121" value="r" style="rounded=0;whiteSpace=wrap;html=1;" vertex="1" parent="1">
                    <mxGeometry x="120" y="143" width="600" height="57" as="geometry"/>
                </mxCell>
                <mxCell id="96" value="22.5 &lt;font style=&quot;font-size: 12px&quot;&gt;%&lt;/font&gt;" style="rounded=0;whiteSpace=wrap;html=1;fontSize=35;" vertex="1" parent="1">
                    <mxGeometry x="220" y="200" width="100" height="60" as="geometry"/>
                </mxCell>
                <mxCell id="97" value="&lt;font style=&quot;font-size: 35px&quot;&gt;1.2&lt;/font&gt; %" style="rounded=0;whiteSpace=wrap;html=1;" vertex="1" parent="1">
                    <mxGeometry x="320" y="200" width="100" height="60" as="geometry"/>
                </mxCell>
                <mxCell id="98" value="&lt;font style=&quot;font-size: 35px&quot;&gt;24&lt;/font&gt; ppm" style="rounded=0;whiteSpace=wrap;html=1;" vertex="1" parent="1">
                    <mxGeometry x="420" y="200" width="100" height="60" as="geometry"/>
                </mxCell>
                <mxCell id="99" value="&lt;font style=&quot;font-size: 35px&quot;&gt;5&lt;/font&gt; ppm" style="rounded=0;whiteSpace=wrap;html=1;" vertex="1" parent="1">
                    <mxGeometry x="520" y="200" width="100" height="60" as="geometry"/>
                </mxCell>
                <mxCell id="100" value="&lt;font style=&quot;font-size: 35px&quot;&gt;5&lt;/font&gt;&amp;nbsp;ppm" style="rounded=0;whiteSpace=wrap;html=1;" vertex="1" parent="1">
                    <mxGeometry x="620" y="200" width="100" height="60" as="geometry"/>
                </mxCell>
                <mxCell id="101" value="22.5&amp;nbsp;&lt;span style=&quot;font-size: 12px&quot;&gt;%&lt;/span&gt;" style="rounded=0;whiteSpace=wrap;html=1;fontSize=35;" vertex="1" parent="1">
                    <mxGeometry x="220" y="260" width="100" height="60" as="geometry"/>
                </mxCell>
                <mxCell id="102" value="&lt;font style=&quot;font-size: 35px&quot;&gt;0&lt;/font&gt; %" style="rounded=0;whiteSpace=wrap;html=1;" vertex="1" parent="1">
                    <mxGeometry x="320" y="260" width="100" height="60" as="geometry"/>
                </mxCell>
                <mxCell id="103" value="&lt;font style=&quot;font-size: 35px&quot;&gt;24&lt;/font&gt;&amp;nbsp;ppm" style="rounded=0;whiteSpace=wrap;html=1;" vertex="1" parent="1">
                    <mxGeometry x="420" y="260" width="100" height="60" as="geometry"/>
                </mxCell>
                <mxCell id="104" value="&lt;font style=&quot;font-size: 35px&quot;&gt;5&lt;/font&gt;&amp;nbsp;ppm" style="rounded=0;whiteSpace=wrap;html=1;" vertex="1" parent="1">
                    <mxGeometry x="520" y="260" width="100" height="60" as="geometry"/>
                </mxCell>
                <mxCell id="105" value="&lt;font style=&quot;font-size: 35px&quot;&gt;5&lt;/font&gt;&amp;nbsp;ppm" style="rounded=0;whiteSpace=wrap;html=1;" vertex="1" parent="1">
                    <mxGeometry x="620" y="260" width="100" height="60" as="geometry"/>
                </mxCell>
                <mxCell id="106" value="22.5&amp;nbsp;&lt;span style=&quot;font-size: 12px&quot;&gt;%&lt;/span&gt;" style="rounded=0;whiteSpace=wrap;html=1;fontSize=35;" vertex="1" parent="1">
                    <mxGeometry x="220" y="320" width="100" height="60" as="geometry"/>
                </mxCell>
                <mxCell id="107" value="&lt;font style=&quot;font-size: 35px&quot;&gt;1.2&lt;/font&gt; %" style="rounded=0;whiteSpace=wrap;html=1;" vertex="1" parent="1">
                    <mxGeometry x="320" y="320" width="100" height="60" as="geometry"/>
                </mxCell>
                <mxCell id="108" value="&lt;font style=&quot;font-size: 35px&quot;&gt;24&lt;/font&gt;&amp;nbsp;ppm" style="rounded=0;whiteSpace=wrap;html=1;" vertex="1" parent="1">
                    <mxGeometry x="420" y="320" width="100" height="60" as="geometry"/>
                </mxCell>
                <mxCell id="109" value="&lt;font style=&quot;font-size: 35px&quot;&gt;5&lt;/font&gt;&amp;nbsp;ppm" style="rounded=0;whiteSpace=wrap;html=1;" vertex="1" parent="1">
                    <mxGeometry x="520" y="320" width="100" height="60" as="geometry"/>
                </mxCell>
                <mxCell id="110" value="&lt;font style=&quot;font-size: 35px&quot;&gt;5&lt;/font&gt;&amp;nbsp;ppm" style="rounded=0;whiteSpace=wrap;html=1;" vertex="1" parent="1">
                    <mxGeometry x="620" y="320" width="100" height="60" as="geometry"/>
                </mxCell>
                <mxCell id="131" value="기계A" style="rounded=0;whiteSpace=wrap;html=1;fontSize=15;" vertex="1" parent="1">
                    <mxGeometry x="160" y="200" width="60" height="60" as="geometry"/>
                </mxCell>
                <mxCell id="132" value="기계B" style="rounded=0;whiteSpace=wrap;html=1;fontSize=15;" vertex="1" parent="1">
                    <mxGeometry x="160" y="260" width="60" height="60" as="geometry"/>
                </mxCell>
                <mxCell id="133" value="기계C" style="rounded=0;whiteSpace=wrap;html=1;fontSize=15;" vertex="1" parent="1">
                    <mxGeometry x="160" y="320" width="60" height="60" as="geometry"/>
                </mxCell>
                <mxCell id="126" value="&lt;font style=&quot;font-size: 18px&quot;&gt;18 %&lt;/font&gt;" style="rounded=0;whiteSpace=wrap;html=1;" vertex="1" parent="1">
                    <mxGeometry x="220" y="143" width="100" height="57" as="geometry"/>
                </mxCell>
                <mxCell id="127" value="&lt;font style=&quot;font-size: 18px&quot;&gt;1.5 %&lt;/font&gt;" style="rounded=0;whiteSpace=wrap;html=1;" vertex="1" parent="1">
                    <mxGeometry x="320" y="143" width="100" height="57" as="geometry"/>
                </mxCell>
                <mxCell id="128" value="&lt;font style=&quot;font-size: 18px&quot;&gt;25 ppm&lt;/font&gt;" style="rounded=0;whiteSpace=wrap;html=1;" vertex="1" parent="1">
                    <mxGeometry x="420" y="143" width="100" height="57" as="geometry"/>
                </mxCell>
                <mxCell id="129" value="&lt;font style=&quot;font-size: 18px&quot;&gt;10 ppm&lt;/font&gt;" style="rounded=0;whiteSpace=wrap;html=1;" vertex="1" parent="1">
                    <mxGeometry x="520" y="143" width="100" height="57" as="geometry"/>
                </mxCell>
                <mxCell id="130" value="&lt;font style=&quot;font-size: 18px&quot;&gt;10 ppm&lt;/font&gt;" style="rounded=0;whiteSpace=wrap;html=1;" vertex="1" parent="1">
                    <mxGeometry x="620" y="143" width="100" height="57" as="geometry"/>
                </mxCell>
                <mxCell id="140" value="기준값" style="rounded=0;whiteSpace=wrap;html=1;" vertex="1" parent="1">
                    <mxGeometry x="120" y="143" width="100" height="57" as="geometry"/>
                </mxCell>
                <mxCell id="142" value="" style="ellipse;whiteSpace=wrap;html=1;aspect=fixed;" vertex="1" parent="1">
                    <mxGeometry x="130" y="220" width="20" height="20" as="geometry"/>
                </mxCell>
                <mxCell id="143" value="" style="ellipse;whiteSpace=wrap;html=1;aspect=fixed;" vertex="1" parent="1">
                    <mxGeometry x="130" y="280" width="20" height="20" as="geometry"/>
                </mxCell>
                <mxCell id="144" value="" style="ellipse;whiteSpace=wrap;html=1;aspect=fixed;" vertex="1" parent="1">
                    <mxGeometry x="130" y="340" width="20" height="20" as="geometry"/>
                </mxCell>
            </root>
        </mxGraphModel>
    </diagram>
</mxfile>